<?xml version="1.0" standalone="no"?>
<!DOCTYPE svg PUBLIC "-//W3C//DTD SVG 20010904//EN"
 "http://www.w3.org/TR/2001/REC-SVG-20010904/DTD/svg10.dtd">
<svg version="1.0" xmlns="http://www.w3.org/2000/svg"
 width="452.000000pt" height="452.000000pt" viewBox="0 0 452.000000 452.000000"
 preserveAspectRatio="xMidYMid meet">
<metadata>
Created by potrace 1.16, written by Peter Selinger 2001-2019
</metadata>
<g transform="translate(0.000000,452.000000) scale(0.100000,-0.100000)"
fill="#000000" stroke="none">
<path d="M1265 4235 c-278 -51 -522 -181 -718 -384 -145 -150 -238 -302 -302
-494 -66 -196 -65 -180 -65 -1329 l0 -1038 135 0 135 0 0 -360 0 -360 1810 0
1810 0 0 360 0 360 135 0 136 0 -3 582 c-3 580 -3 583 -27 653 -93 280 -305
483 -579 557 -64 17 -122 21 -347 28 -287 7 -309 11 -401 65 -56 33 -125 112
-158 180 -14 30 -35 97 -46 148 -114 523 -478 892 -1010 1023 -94 23 -399 28
-505 9z m510 -209 c197 -52 389 -167 531 -318 153 -162 241 -335 293 -573 52
-245 190 -403 416 -481 76 -26 92 -28 345 -35 289 -7 334 -15 445 -70 120 -62
221 -163 280 -284 64 -129 65 -141 65 -637 l0 -448 -1890 0 -1891 0 3 973 c3
969 3 972 25 1050 61 215 149 370 293 518 136 138 280 229 463 289 122 40 201
50 367 46 128 -3 172 -8 255 -30z m-875 -3216 l0 -180 95 0 95 0 0 180 0 180
85 0 85 0 0 -180 0 -180 95 0 95 0 0 180 0 180 175 0 175 0 0 -180 0 -180 95
0 95 0 0 180 0 180 85 0 85 0 0 -180 0 -180 100 0 100 0 0 180 0 180 85 0 85
0 0 -180 0 -180 95 0 95 0 0 180 0 180 175 0 175 0 0 -180 0 -180 95 0 95 0 0
180 0 180 85 0 85 0 0 -180 0 -180 95 0 95 0 0 180 0 180 130 0 130 0 0 -265
0 -265 -1620 0 -1620 0 0 265 0 265 130 0 130 0 0 -180z"/>
</g>
</svg>
